<svg width="44" height="44" viewBox="0 0 44 44" fill="none" xmlns="http://www.w3.org/2000/svg">
<g clip-path="url(#clip0_617_181)">
<path d="M34.8333 7.33333H33.902L29.898 2.14133C29.382 1.47731 28.7216 0.93943 27.9669 0.568432C27.2122 0.197434 26.383 0.00304891 25.542 0L18.458 0C17.617 0.00304891 16.7878 0.197434 16.0331 0.568432C15.2784 0.93943 14.618 1.47731 14.102 2.14133L10.098 7.33333H9.16667C6.73641 7.33624 4.40652 8.30295 2.68807 10.0214C0.969617 11.7399 0.00291107 14.0697 0 16.5L0 34.8333C0.00291107 37.2636 0.969617 39.5935 2.68807 41.3119C4.40652 43.0304 6.73641 43.9971 9.16667 44H34.8333C37.2636 43.9971 39.5935 43.0304 41.3119 41.3119C43.0304 39.5935 43.9971 37.2636 44 34.8333V16.5C43.9971 14.0697 43.0304 11.7399 41.3119 10.0214C39.5935 8.30295 37.2636 7.33624 34.8333 7.33333ZM17.006 4.38167C17.1777 4.15993 17.3978 3.98028 17.6494 3.85638C17.901 3.73249 18.1775 3.6676 18.458 3.66667H25.542C25.8224 3.66787 26.0989 3.73288 26.3504 3.85675C26.602 3.98063 26.8221 4.16014 26.994 4.38167L29.271 7.33333H14.729L17.006 4.38167ZM40.3333 34.8333C40.3333 36.292 39.7539 37.691 38.7224 38.7224C37.691 39.7539 36.292 40.3333 34.8333 40.3333H9.16667C7.70798 40.3333 6.30903 39.7539 5.27758 38.7224C4.24613 37.691 3.66667 36.292 3.66667 34.8333V16.5C3.66667 15.0413 4.24613 13.6424 5.27758 12.6109C6.30903 11.5795 7.70798 11 9.16667 11H34.8333C36.292 11 37.691 11.5795 38.7224 12.6109C39.7539 13.6424 40.3333 15.0413 40.3333 16.5V34.8333Z" fill="#E2E2E2"/>
<path d="M22 14.6666C19.8244 14.6666 17.6977 15.3118 15.8887 16.5205C14.0798 17.7292 12.6699 19.4471 11.8373 21.4571C11.0048 23.4671 10.7869 25.6788 11.2114 27.8126C11.6358 29.9464 12.6835 31.9064 14.2218 33.4448C15.7602 34.9832 17.7202 36.0308 19.854 36.4553C21.9878 36.8797 24.1995 36.6619 26.2095 35.8293C28.2195 34.9967 29.9375 33.5868 31.1462 31.7779C32.3549 29.969 33 27.8422 33 25.6666C32.9971 22.7501 31.8372 19.9539 29.775 17.8917C27.7127 15.8294 24.9165 14.6695 22 14.6666ZM22 33C20.5496 33 19.1318 32.5699 17.9258 31.7641C16.7199 30.9583 15.7799 29.813 15.2249 28.473C14.6698 27.133 14.5246 25.6585 14.8076 24.236C15.0905 22.8134 15.789 21.5068 16.8146 20.4812C17.8401 19.4556 19.1468 18.7572 20.5693 18.4742C21.9919 18.1912 23.4664 18.3365 24.8064 18.8915C26.1463 19.4466 27.2917 20.3865 28.0974 21.5924C28.9032 22.7984 29.3333 24.2162 29.3333 25.6666C29.3333 27.6115 28.5607 29.4768 27.1855 30.8521C25.8102 32.2273 23.9449 33 22 33Z" fill="#E2E2E2"/>
</g>
<defs>
<clipPath id="clip0_617_181">
<rect width="44" height="44" fill="white"/>
</clipPath>
</defs>
</svg>
