<svg width="41" height="40" viewBox="0 0 41 40" fill="none" xmlns="http://www.w3.org/2000/svg">
<path d="M32.7937 14.6247C32.6349 14.4639 32.4459 14.3362 32.2378 14.2491C32.0296 14.162 31.8063 14.1172 31.5808 14.1172C31.3553 14.1172 31.132 14.162 30.9238 14.2491C30.7156 14.3362 30.5267 14.4639 30.3679 14.6247L22.5437 22.4825C22.3849 22.6433 22.1959 22.771 21.9878 22.8581C21.7796 22.9452 21.5563 22.99 21.3308 22.99C21.1053 22.99 20.882 22.9452 20.6738 22.8581C20.4656 22.771 20.2767 22.6433 20.1179 22.4825L12.2937 14.6247C12.1349 14.4639 11.9459 14.3362 11.7378 14.2491C11.5296 14.162 11.3063 14.1172 11.0808 14.1172C10.8553 14.1172 10.632 14.162 10.4238 14.2491C10.2156 14.3362 10.0267 14.4639 9.86786 14.6247C9.54969 14.9461 9.37109 15.381 9.37109 15.8342C9.37109 16.2875 9.54969 16.7223 9.86786 17.0438L17.7091 24.9188C18.6701 25.8827 19.9727 26.4241 21.3308 26.4241C22.6889 26.4241 23.9915 25.8827 24.9524 24.9188L32.7937 17.0438C33.1119 16.7223 33.2905 16.2875 33.2905 15.8342C33.2905 15.381 33.1119 14.9461 32.7937 14.6247Z" fill="#374151"/>
</svg>
