<svg width="20" height="20" viewBox="0 0 20 20" fill="none" xmlns="http://www.w3.org/2000/svg">
<g clip-path="url(#clip0_432_157)">
<path d="M11.7674 9.99978L19.6338 17.8653C20.1221 18.3536 20.1221 19.1453 19.6338 19.6335C19.1455 20.1218 18.3538 20.1218 17.8655 19.6335L9.99997 11.7672L2.13447 19.6335C1.64617 20.1218 0.854486 20.1218 0.366225 19.6335C-0.122036 19.1452 -0.122075 18.3535 0.366225 17.8653L8.23254 9.99978L0.366225 2.13425C-0.122075 1.64595 -0.122075 0.854262 0.366225 0.366001C0.854526 -0.122261 1.64621 -0.1223 2.13447 0.366001L9.99997 8.23236L17.8655 0.366001C18.3538 -0.1223 19.1455 -0.1223 19.6337 0.366001C20.122 0.854301 20.122 1.64599 19.6337 2.13425L11.7674 9.99978Z" fill="black" fill-opacity="0.21"/>
</g>
<defs>
<clipPath id="clip0_432_157">
<rect width="20" height="20" fill="white" transform="matrix(1 0 0 -1 0 20)"/>
</clipPath>
</defs>
</svg>
