<svg width="22" height="22" viewBox="0 0 22 22" fill="none" xmlns="http://www.w3.org/2000/svg">
<g clip-path="url(#clip0_581_161)">
<path d="M12.9441 11L21.5971 19.6521C22.1343 20.1892 22.1343 21.0601 21.5971 21.5972C21.06 22.1343 20.1891 22.1343 19.6521 21.5972L11 12.9442L2.34792 21.5972C1.81079 22.1343 0.939935 22.1343 0.402848 21.5972C-0.13424 21.06 -0.134283 20.1892 0.402848 19.6521L9.0558 11L0.402848 2.34794C-0.134283 1.81081 -0.134283 0.939957 0.402848 0.40287C0.939978 -0.134218 1.81083 -0.13426 2.34792 0.40287L11 9.05586L19.652 0.40287C20.1891 -0.13426 21.06 -0.13426 21.5971 0.40287C22.1342 0.940001 22.1342 1.81085 21.5971 2.34794L12.9441 11Z" fill="#374151"/>
</g>
<defs>
<clipPath id="clip0_581_161">
<rect width="22" height="22" fill="white" transform="matrix(1 0 0 -1 0 22)"/>
</clipPath>
</defs>
</svg>
