<svg width="56" height="56" viewBox="0 0 56 56" fill="none" xmlns="http://www.w3.org/2000/svg">
<g clip-path="url(#clip0_1_12343)">
<path d="M39.666 32.6667C39.666 33.2856 39.4202 33.8791 38.9826 34.3166C38.545 34.7542 37.9515 35.0001 37.3327 35.0001H18.666C18.0472 35.0001 17.4537 34.7542 17.0161 34.3166C16.5785 33.8791 16.3327 33.2856 16.3327 32.6667C16.3327 32.0479 16.5785 31.4544 17.0161 31.0168C17.4537 30.5792 18.0472 30.3334 18.666 30.3334H37.3327C37.9515 30.3334 38.545 30.5792 38.9826 31.0168C39.4202 31.4544 39.666 32.0479 39.666 32.6667ZM30.3327 39.6667H18.666C18.0472 39.6667 17.4537 39.9125 17.0161 40.3501C16.5785 40.7877 16.3327 41.3812 16.3327 42.0001C16.3327 42.6189 16.5785 43.2124 17.0161 43.65C17.4537 44.0876 18.0472 44.3334 18.666 44.3334H30.3327C30.9515 44.3334 31.545 44.0876 31.9826 43.65C32.4202 43.2124 32.666 42.6189 32.666 42.0001C32.666 41.3812 32.4202 40.7877 31.9826 40.3501C31.545 39.9125 30.9515 39.6667 30.3327 39.6667ZM51.3327 24.4651V44.3334C51.329 47.4264 50.0986 50.3918 47.9115 52.5789C45.7244 54.766 42.7591 55.9963 39.666 56H16.3327C13.2396 55.9963 10.2743 54.766 8.0872 52.5789C5.90007 50.3918 4.66972 47.4264 4.66602 44.3334V11.6667C4.66972 8.57366 5.90007 5.60836 8.0872 3.42123C10.2743 1.23411 13.2396 0.00375878 16.3327 5.37802e-05H26.8677C29.0135 -0.00546905 31.139 0.414425 33.1215 1.23546C35.104 2.05649 36.9041 3.26238 38.4177 4.78339L46.547 12.9174C48.0689 14.4299 49.2755 16.2295 50.097 18.2117C50.9185 20.1939 51.3385 22.3194 51.3327 24.4651ZM35.1183 8.08272C34.384 7.37143 33.5595 6.75954 32.666 6.26272V16.3334C32.666 16.9522 32.9118 17.5457 33.3494 17.9833C33.787 18.4209 34.3805 18.6667 34.9993 18.6667H45.07C44.5729 17.7735 43.9602 16.9497 43.2477 16.2167L35.1183 8.08272ZM46.666 24.4651C46.666 24.0801 46.5913 23.7114 46.5563 23.3334H34.9993C33.1428 23.3334 31.3624 22.5959 30.0496 21.2831C28.7368 19.9704 27.9993 18.1899 27.9993 16.3334V4.77639C27.6213 4.74139 27.2503 4.66672 26.8677 4.66672H16.3327C14.4762 4.66672 12.6957 5.40422 11.3829 6.71697C10.0702 8.02973 9.33268 9.8102 9.33268 11.6667V44.3334C9.33268 46.1899 10.0702 47.9704 11.3829 49.2831C12.6957 50.5959 14.4762 51.3334 16.3327 51.3334H39.666C41.5225 51.3334 43.303 50.5959 44.6158 49.2831C45.9285 47.9704 46.666 46.1899 46.666 44.3334V24.4651Z" fill="#4B4B4B"/>
</g>
<defs>
<clipPath id="clip0_1_12343">
<rect width="56" height="56" fill="white"/>
</clipPath>
</defs>
</svg>
