<svg width="32" height="32" viewBox="0 0 32 32" fill="none" xmlns="http://www.w3.org/2000/svg">
<g clip-path="url(#clip0_3078_863)">
<path d="M31.9997 15.9999C31.9997 13.7385 30.8531 11.7452 29.1091 10.5692C29.5104 8.5052 28.9117 6.2852 27.3131 4.6852C25.7144 3.08653 23.4944 2.48787 21.4291 2.8892C20.2531 1.1452 18.2597 -0.00146484 15.9984 -0.00146484C13.7371 -0.00146484 11.7437 1.1452 10.5677 2.8892C8.50374 2.48787 6.2824 3.08653 4.68374 4.6852C3.08507 6.28387 2.4864 8.50387 2.88774 10.5692C1.14374 11.7452 -0.00292969 13.7385 -0.00292969 15.9999C-0.00292969 18.2612 1.14374 20.2545 2.88774 21.4305C2.4864 23.4945 3.08507 25.7159 4.68374 27.3145C6.2824 28.9132 8.5024 29.5119 10.5677 29.1105C11.7437 30.8545 13.7371 32.0012 15.9984 32.0012C18.2597 32.0012 20.2531 30.8545 21.4291 29.1105C23.4931 29.5119 25.7144 28.9132 27.3131 27.3145C28.9117 25.7159 29.5104 23.4959 29.1091 21.4305C30.8531 20.2545 31.9997 18.2612 31.9997 15.9999ZM15.8784 20.5585C15.3624 21.0745 14.6837 21.3319 14.0024 21.3319C13.3211 21.3319 12.6357 21.0719 12.1144 20.5519L8.40507 16.9572L10.2624 15.0412L13.9864 18.6505L21.7317 11.0492L23.6037 12.9492L15.8784 20.5585Z" fill="#4286F7"/>
</g>
<defs>
<clipPath id="clip0_3078_863">
<rect width="32" height="32" fill="white"/>
</clipPath>
</defs>
</svg>
