<svg width="22" height="22" viewBox="0 0 22 22" fill="none" xmlns="http://www.w3.org/2000/svg">
<path d="M17.4173 3.66667V15.5833C17.4173 19.1217 14.539 22 11.0007 22C7.46232 22 4.58398 19.1217 4.58398 15.5833V4.58333C4.58398 2.05333 6.63732 0 9.16732 0C11.6973 0 13.7507 2.05333 13.7507 4.58333V15.5833C13.7507 17.0958 12.5132 18.3333 11.0007 18.3333C9.48815 18.3333 8.25065 17.0958 8.25065 15.5833V5.5C8.25065 4.99583 8.66315 4.58333 9.16732 4.58333C9.67148 4.58333 10.084 4.99583 10.084 5.5V15.5833C10.084 16.0875 10.4965 16.5 11.0007 16.5C11.5048 16.5 11.9173 16.0875 11.9173 15.5833V4.58333C11.9173 3.07083 10.6798 1.83333 9.16732 1.83333C7.65482 1.83333 6.41732 3.07083 6.41732 4.58333V15.5833C6.41732 18.1133 8.47065 20.1667 11.0007 20.1667C13.5307 20.1667 15.584 18.1133 15.584 15.5833V3.66667C15.584 3.1625 15.9965 2.75 16.5007 2.75C17.0048 2.75 17.4173 3.1625 17.4173 3.66667Z" fill="#4B4B4B"/>
</svg>
