<svg width="25" height="25" viewBox="0 0 25 25" fill="none" xmlns="http://www.w3.org/2000/svg">
<path d="M19.7923 8.775V7.29167C19.7923 5.3578 19.0241 3.50313 17.6566 2.13568C16.2892 0.768227 14.4345 0 12.5007 0C10.5668 0 8.71212 0.768227 7.34466 2.13568C5.97721 3.50313 5.20898 5.3578 5.20898 7.29167V8.775C4.28124 9.1799 3.49158 9.84638 2.93659 10.6929C2.38159 11.5395 2.08532 12.5294 2.08398 13.5417V19.7917C2.08564 21.1725 2.6349 22.4963 3.6113 23.4727C4.58769 24.4491 5.91149 24.9983 7.29232 25H17.709C19.0898 24.9983 20.4136 24.4491 21.39 23.4727C22.3664 22.4963 22.9157 21.1725 22.9173 19.7917V13.5417C22.916 12.5294 22.6197 11.5395 22.0647 10.6929C21.5097 9.84638 20.7201 9.1799 19.7923 8.775ZM7.29232 7.29167C7.29232 5.91033 7.84105 4.58557 8.8178 3.60882C9.79456 2.63207 11.1193 2.08333 12.5007 2.08333C13.882 2.08333 15.2067 2.63207 16.1835 3.60882C17.1603 4.58557 17.709 5.91033 17.709 7.29167V8.33333H7.29232V7.29167ZM20.834 19.7917C20.834 20.6205 20.5047 21.4153 19.9187 22.0014C19.3326 22.5874 18.5378 22.9167 17.709 22.9167H7.29232C6.46352 22.9167 5.66866 22.5874 5.08261 22.0014C4.49656 21.4153 4.16732 20.6205 4.16732 19.7917V13.5417C4.16732 12.7129 4.49656 11.918 5.08261 11.332C5.66866 10.7459 6.46352 10.4167 7.29232 10.4167H17.709C18.5378 10.4167 19.3326 10.7459 19.9187 11.332C20.5047 11.918 20.834 12.7129 20.834 13.5417V19.7917Z" fill="#4B4B4B"/>
<path d="M12.5007 14.5834C12.2244 14.5834 11.9594 14.6931 11.7641 14.8885C11.5687 15.0838 11.459 15.3488 11.459 15.625V17.7084C11.459 17.9846 11.5687 18.2496 11.7641 18.4449C11.9594 18.6403 12.2244 18.75 12.5007 18.75C12.7769 18.75 13.0419 18.6403 13.2372 18.4449C13.4326 18.2496 13.5423 17.9846 13.5423 17.7084V15.625C13.5423 15.3488 13.4326 15.0838 13.2372 14.8885C13.0419 14.6931 12.7769 14.5834 12.5007 14.5834Z" fill="#4B4B4B"/>
</svg>
