<svg width="35" height="35" viewBox="0 0 35 35" fill="none" xmlns="http://www.w3.org/2000/svg">
<g clip-path="url(#clip0_590_176)">
<path d="M17.4998 2.91707C19.4343 2.92342 21.3483 3.31335 23.1311 4.06432C24.9139 4.81529 26.53 5.91237 27.886 7.29207H23.3331C22.9463 7.29207 22.5754 7.44572 22.3019 7.71921C22.0284 7.9927 21.8748 8.36363 21.8748 8.7504C21.8748 9.13718 22.0284 9.50811 22.3019 9.7816C22.5754 10.0551 22.9463 10.2087 23.3331 10.2087H29.375C30.0931 10.2083 30.7817 9.92291 31.2895 9.41512C31.7973 8.90733 32.0827 8.21873 32.0831 7.50061V1.45874C32.0831 1.07196 31.9295 0.701029 31.656 0.427538C31.3825 0.154048 31.0115 0.000402448 30.6248 0.000402448C30.238 0.000402448 29.8671 0.154048 29.5936 0.427538C29.3201 0.701029 29.1664 1.07196 29.1664 1.45874V4.48915C26.7561 2.31835 23.789 0.861417 20.5974 0.281495C17.4059 -0.298427 14.1159 0.0215657 11.0959 1.20564C8.07594 2.38971 5.44521 4.39111 3.49832 6.98571C1.55144 9.58031 0.365286 12.6657 0.072683 15.8962C0.0538463 16.0993 0.0775185 16.3041 0.142191 16.4975C0.206864 16.691 0.31112 16.8688 0.448315 17.0197C0.585511 17.1706 0.752637 17.2913 0.939047 17.3741C1.12546 17.4568 1.32706 17.4999 1.53102 17.5004C1.88771 17.5049 2.23325 17.3762 2.50002 17.1394C2.76678 16.9026 2.93556 16.5747 2.97331 16.22C3.29795 12.5898 4.96827 9.21226 7.65613 6.75079C10.344 4.28932 13.8551 2.92187 17.4998 2.91707Z" fill="#010101"/>
<path d="M33.4715 17.5001C33.1148 17.4956 32.7693 17.6243 32.5025 17.8611C32.2357 18.098 32.067 18.4258 32.0292 18.7805C31.7881 21.5561 30.756 24.2042 29.0552 26.4108C27.3544 28.6174 25.0563 30.2898 22.4336 31.2297C19.8109 32.1695 16.9737 32.3373 14.2585 31.7132C11.5433 31.089 9.06411 29.6992 7.11505 27.7084H11.668C12.0547 27.7084 12.4257 27.5548 12.6992 27.2813C12.9727 27.0078 13.1263 26.6369 13.1263 26.2501C13.1263 25.8633 12.9727 25.4924 12.6992 25.2189C12.4257 24.9454 12.0547 24.7918 11.668 24.7918H5.62609C5.2704 24.7916 4.91816 24.8615 4.58951 24.9975C4.26086 25.1336 3.96224 25.333 3.71073 25.5845C3.45922 25.8361 3.25975 26.1347 3.12372 26.4633C2.98769 26.792 2.91778 27.1442 2.91797 27.4999V33.5418C2.91797 33.9286 3.07161 34.2995 3.34511 34.573C3.6186 34.8465 3.98953 35.0001 4.3763 35.0001C4.76308 35.0001 5.13401 34.8465 5.4075 34.573C5.68099 34.2995 5.83464 33.9286 5.83464 33.5418V30.5114C8.24501 32.6822 11.2121 34.1391 14.4037 34.719C17.5952 35.2989 20.8852 34.979 23.9052 33.7949C26.9251 32.6108 29.5559 30.6094 31.5027 28.0148C33.4496 25.4202 34.6358 22.3349 34.9284 19.1043C34.9472 18.9012 34.9235 18.6964 34.8589 18.503C34.7942 18.3096 34.6899 18.1317 34.5528 17.9808C34.4156 17.8299 34.2484 17.7092 34.062 17.6264C33.8756 17.5437 33.6755 17.5007 33.4715 17.5001Z" fill="#010101"/>
</g>
<defs>
<clipPath id="clip0_590_176">
<rect width="35" height="35" fill="white"/>
</clipPath>
</defs>
</svg>
