<svg width="35" height="35" viewBox="0 0 35 35" fill="none" xmlns="http://www.w3.org/2000/svg">
<g clip-path="url(#clip0_2626_537)">
<path d="M34.5725 32.5104L25.8677 23.8056C28.2399 20.9044 29.4062 17.2024 29.1254 13.4654C28.8446 9.72839 27.1382 6.24224 24.3592 3.72806C21.5802 1.21388 17.9411 -0.135978 14.1947 -0.0423066C10.4483 0.0513648 6.88125 1.5814 4.23132 4.23132C1.5814 6.88125 0.0513648 10.4483 -0.0423066 14.1947C-0.135978 17.9411 1.21388 21.5802 3.72806 24.3592C6.24224 27.1382 9.72839 28.8446 13.4654 29.1254C17.2024 29.4062 20.9044 28.2399 23.8056 25.8677L32.5104 34.5725C32.7855 34.8382 33.1539 34.9852 33.5362 34.9818C33.9186 34.9785 34.2844 34.8251 34.5547 34.5547C34.8251 34.2844 34.9785 33.9186 34.9818 33.5362C34.9852 33.1539 34.8382 32.7855 34.5725 32.5104ZM14.5831 26.2498C12.2757 26.2498 10.0201 25.5656 8.10148 24.2836C6.18291 23.0017 4.68756 21.1796 3.80454 19.0478C2.92152 16.916 2.69048 14.5702 3.14064 12.3071C3.5908 10.044 4.70195 7.96517 6.33356 6.33356C7.96517 4.70195 10.044 3.5908 12.3071 3.14064C14.5702 2.69048 16.916 2.92152 19.0478 3.80454C21.1796 4.68756 23.0017 6.18291 24.2836 8.10148C25.5656 10.0201 26.2498 12.2757 26.2498 14.5831C26.2463 17.6763 25.0161 20.6417 22.8289 22.8289C20.6417 25.0161 17.6763 26.2463 14.5831 26.2498Z" fill="#374151"/>
</g>
<defs>
<clipPath id="clip0_2626_537">
<rect width="35" height="35" fill="white"/>
</clipPath>
</defs>
</svg>
