<svg width="36" height="36" viewBox="0 0 36 36" fill="none" xmlns="http://www.w3.org/2000/svg">
<g clip-path="url(#clip0_811_166)">
<path d="M35.5597 33.4397L26.6062 24.4862C29.0461 21.5021 30.2458 17.6943 29.957 13.8505C29.6682 10.0067 27.913 6.42096 25.0546 3.83494C22.1961 1.24893 18.4531 -0.1395 14.5996 -0.0431527C10.7462 0.0531951 7.07724 1.62695 4.3516 4.35258C1.62597 7.07822 0.0522185 10.7472 -0.0441292 14.6006C-0.140477 18.454 1.24795 22.1971 3.83397 25.0555C6.41998 27.914 10.0057 29.6691 13.8495 29.9579C17.6933 30.2467 21.5011 29.0471 24.4852 26.6072L33.4387 35.5607C33.7216 35.8339 34.1005 35.9851 34.4938 35.9817C34.8871 35.9783 35.2633 35.8205 35.5414 35.5424C35.8195 35.2643 35.9773 34.8881 35.9807 34.4948C35.9841 34.1015 35.8329 33.7226 35.5597 33.4397ZM14.9992 27.0002C12.6258 27.0002 10.3057 26.2964 8.33234 24.9778C6.35895 23.6592 4.82088 21.7851 3.91263 19.5924C3.00438 17.3996 2.76674 14.9869 3.22976 12.6591C3.69278 10.3313 4.83567 8.19311 6.5139 6.51488C8.19213 4.83665 10.3303 3.69376 12.6581 3.23074C14.9859 2.76771 17.3987 3.00535 19.5914 3.91361C21.7841 4.82186 23.6582 6.35993 24.9768 8.33332C26.2954 10.3067 26.9992 12.6268 26.9992 15.0002C26.9956 18.1817 25.7302 21.2318 23.4805 23.4815C21.2309 25.7312 18.1807 26.9966 14.9992 27.0002Z" fill="white"/>
</g>
<defs>
<clipPath id="clip0_811_166">
<rect width="36" height="36" fill="white"/>
</clipPath>
</defs>
</svg>
