<svg width="36" height="36" viewBox="0 0 36 36" fill="none" xmlns="http://www.w3.org/2000/svg">
<path d="M9 18.0001C9.0073 18.7893 9.32527 19.5438 9.885 20.1001L16.32 26.5501C16.601 26.8295 16.9812 26.9863 17.3775 26.9863C17.7738 26.9863 18.154 26.8295 18.435 26.5501C18.5756 26.4107 18.6872 26.2448 18.7633 26.062C18.8395 25.8792 18.8787 25.6832 18.8787 25.4851C18.8787 25.2871 18.8395 25.0911 18.7633 24.9083C18.6872 24.7255 18.5756 24.5596 18.435 24.4201L13.5 19.5001L28.5 19.5001C28.8978 19.5001 29.2794 19.3421 29.5607 19.0608C29.842 18.7795 30 18.398 30 18.0001C30 17.6023 29.842 17.2208 29.5607 16.9395C29.2794 16.6582 28.8978 16.5001 28.5 16.5001L13.5 16.5001L18.435 11.5651C18.7175 11.2847 18.8769 10.9035 18.8783 10.5054C18.8797 10.1074 18.723 9.72509 18.4425 9.44264C18.162 9.16018 17.7809 9.00071 17.3828 8.9993C16.9848 8.9979 16.6025 9.15467 16.32 9.43514L9.885 15.8851C9.32162 16.4452 9.00335 17.2058 9 18.0001Z" fill="#010101"/>
</svg>
