<svg width="25" height="25" viewBox="0 0 25 25" fill="none" xmlns="http://www.w3.org/2000/svg">
<path d="M24.2363 9.78809C23.2963 8.2422 22.1105 6.86134 20.7261 5.7003L23.6417 2.77223C23.8314 2.575 23.9363 2.31084 23.934 2.03665C23.9316 1.76246 23.8221 1.50018 23.629 1.30629C23.436 1.1124 23.1748 1.00242 22.9018 1.00004C22.6288 0.997657 22.3657 1.10306 22.1693 1.29355L18.9986 4.48201C17.0331 3.30955 14.786 2.69847 12.5 2.71471C6.05343 2.71471 2.37979 7.14656 0.763723 9.78809C0.264458 10.5991 0 11.5337 0 12.4871C0 13.4406 0.264458 14.3752 0.763723 15.1862C1.70375 16.7321 2.88949 18.113 4.27388 19.274L1.35829 22.2021C1.25884 22.2985 1.17951 22.4139 1.12494 22.5415C1.07037 22.6691 1.04164 22.8063 1.04044 22.9452C1.03924 23.084 1.06559 23.2217 1.11794 23.3502C1.1703 23.4788 1.24762 23.5955 1.34539 23.6937C1.44316 23.7919 1.55942 23.8695 1.68739 23.9221C1.81536 23.9747 1.95247 24.0012 2.09073 24C2.22899 23.9988 2.36563 23.9699 2.49267 23.9151C2.61971 23.8603 2.73461 23.7806 2.83067 23.6807L6.00865 20.4891C7.97175 21.6614 10.2161 22.2735 12.5 22.2596C18.9466 22.2596 22.6202 17.8277 24.2363 15.1862C24.7355 14.3752 25 13.4406 25 12.4871C25 11.5337 24.7355 10.5991 24.2363 9.78809ZM2.53807 14.0913C2.24144 13.6093 2.08433 13.0538 2.08433 12.4871C2.08433 11.9205 2.24144 11.365 2.53807 10.883C3.92713 8.61791 7.0666 4.80619 12.5 4.80619C14.2288 4.79646 15.9333 5.21491 17.4627 6.02448L15.3666 8.12955C14.3669 7.463 13.1684 7.16433 11.9744 7.28422C10.7804 7.40412 9.66445 7.93519 8.81595 8.78732C7.96745 9.63946 7.43864 10.7602 7.31926 11.9593C7.19988 13.1584 7.49727 14.3621 8.16098 15.3661L5.75562 17.7817C4.48016 16.7462 3.39175 15.4978 2.53807 14.0913ZM15.6238 12.4871C15.6238 13.3192 15.2947 14.1172 14.7089 14.7055C14.1231 15.2938 13.3285 15.6244 12.5 15.6244C12.0361 15.6226 11.5787 15.5153 11.162 15.3106L15.3115 11.1434C15.5152 11.5619 15.622 12.0213 15.6238 12.4871ZM9.37616 12.4871C9.37616 11.6551 9.70527 10.8571 10.2911 10.2688C10.8769 9.68046 11.6715 9.34993 12.5 9.34993C12.9639 9.35173 13.4213 9.45899 13.838 9.66365L9.68854 13.8309C9.48475 13.4124 9.37795 12.953 9.37616 12.4871ZM22.4619 14.0913C21.0729 16.3564 17.9334 20.1681 12.5 20.1681C10.7712 20.1778 9.06665 19.7594 7.53725 18.9498L9.63335 16.8447C10.6331 17.5113 11.8316 17.81 13.0256 17.6901C14.2196 17.5702 15.3355 17.0391 16.184 16.187C17.0326 15.3348 17.5614 14.2141 17.6807 13.015C17.8001 11.8159 17.5027 10.6122 16.839 9.60823L19.2444 7.19257C20.5198 8.22815 21.6083 9.47651 22.4619 10.883C22.7586 11.365 22.9157 11.9205 22.9157 12.4871C22.9157 13.0538 22.7586 13.6093 22.4619 14.0913Z" fill="black" fill-opacity="0.21"/>
</svg>
