<svg width="226" height="60" viewBox="0 0 226 60" fill="none" xmlns="http://www.w3.org/2000/svg">
<rect width="58" height="60" rx="13" fill="#4286F7"/>
<circle cx="23.7777" cy="32.3653" r="9.77766" fill="white"/>
<circle cx="37.7459" cy="22.5872" r="5.58723" fill="white"/>
<path d="M75.376 29C75.2 29 75.056 28.944 74.944 28.832C74.832 28.704 74.776 28.56 74.776 28.4V12.8C74.776 12.624 74.832 12.48 74.944 12.368C75.072 12.256 75.216 12.2 75.376 12.2H77.992C78.168 12.2 78.312 12.256 78.424 12.368C78.536 12.48 78.592 12.624 78.592 12.8V23.168L85.96 12.632C86.04 12.52 86.136 12.424 86.248 12.344C86.376 12.248 86.536 12.2 86.728 12.2H89.08C89.256 12.2 89.4 12.256 89.512 12.368C89.624 12.48 89.68 12.624 89.68 12.8V28.4C89.68 28.576 89.624 28.72 89.512 28.832C89.4 28.944 89.256 29 89.08 29H86.464C86.304 29 86.16 28.944 86.032 28.832C85.92 28.72 85.864 28.576 85.864 28.4V18.344L78.496 28.568C78.448 28.664 78.368 28.76 78.256 28.856C78.144 28.952 77.976 29 77.752 29H75.376ZM93.5333 29C93.3733 29 93.2373 28.944 93.1253 28.832C93.0133 28.72 92.9573 28.576 92.9573 28.4V17.12C92.9573 16.944 93.0133 16.8 93.1253 16.688C93.2373 16.576 93.3733 16.52 93.5333 16.52H95.9333C96.1093 16.52 96.2533 16.576 96.3653 16.688C96.4773 16.8 96.5333 16.944 96.5333 17.12V21.248H101.405V17.12C101.405 16.944 101.461 16.8 101.573 16.688C101.685 16.576 101.829 16.52 102.005 16.52H104.405C104.565 16.52 104.701 16.576 104.813 16.688C104.925 16.8 104.981 16.944 104.981 17.12V28.4C104.981 28.576 104.925 28.72 104.813 28.832C104.701 28.944 104.565 29 104.405 29H102.005C101.829 29 101.685 28.944 101.573 28.832C101.461 28.72 101.405 28.576 101.405 28.4V24.08H96.5333V28.4C96.5333 28.576 96.4773 28.72 96.3653 28.832C96.2533 28.944 96.1093 29 95.9333 29H93.5333ZM108.651 29C108.491 29 108.355 28.944 108.243 28.832C108.131 28.72 108.075 28.576 108.075 28.4V17.12C108.075 16.944 108.131 16.8 108.243 16.688C108.355 16.576 108.491 16.52 108.651 16.52H111.051C111.227 16.52 111.371 16.576 111.483 16.688C111.595 16.8 111.651 16.944 111.651 17.12V21.248H116.523V17.12C116.523 16.944 116.579 16.8 116.691 16.688C116.803 16.576 116.947 16.52 117.123 16.52H119.523C119.683 16.52 119.819 16.576 119.931 16.688C120.043 16.8 120.099 16.944 120.099 17.12V28.4C120.099 28.576 120.043 28.72 119.931 28.832C119.819 28.944 119.683 29 119.523 29H117.123C116.947 29 116.803 28.944 116.691 28.832C116.579 28.72 116.523 28.576 116.523 28.4V24.08H111.651V28.4C111.651 28.576 111.595 28.72 111.483 28.832C111.371 28.944 111.227 29 111.051 29H108.651ZM128.904 29.24C127.576 29.24 126.464 29.024 125.568 28.592C124.672 28.144 123.984 27.512 123.504 26.696C123.04 25.88 122.784 24.928 122.736 23.84C122.72 23.52 122.712 23.16 122.712 22.76C122.712 22.344 122.72 21.984 122.736 21.68C122.784 20.576 123.056 19.624 123.552 18.824C124.048 18.008 124.744 17.384 125.64 16.952C126.536 16.504 127.624 16.28 128.904 16.28C130.168 16.28 131.248 16.504 132.144 16.952C133.04 17.384 133.736 18.008 134.232 18.824C134.728 19.624 135 20.576 135.048 21.68C135.08 21.984 135.096 22.344 135.096 22.76C135.096 23.16 135.08 23.52 135.048 23.84C135 24.928 134.736 25.88 134.256 26.696C133.792 27.512 133.112 28.144 132.216 28.592C131.32 29.024 130.216 29.24 128.904 29.24ZM128.904 26.6C129.688 26.6 130.28 26.36 130.68 25.88C131.08 25.384 131.296 24.664 131.328 23.72C131.344 23.48 131.352 23.16 131.352 22.76C131.352 22.36 131.344 22.04 131.328 21.8C131.296 20.872 131.08 20.16 130.68 19.664C130.28 19.168 129.688 18.92 128.904 18.92C128.12 18.92 127.52 19.168 127.104 19.664C126.704 20.16 126.488 20.872 126.456 21.8C126.44 22.04 126.432 22.36 126.432 22.76C126.432 23.16 126.44 23.48 126.456 23.72C126.488 24.664 126.704 25.384 127.104 25.88C127.52 26.36 128.12 26.6 128.904 26.6ZM138.182 29C138.022 29 137.886 28.944 137.774 28.832C137.662 28.72 137.606 28.576 137.606 28.4V17.12C137.606 16.944 137.662 16.8 137.774 16.688C137.886 16.576 138.022 16.52 138.182 16.52H143.654C145.446 16.52 146.758 16.84 147.59 17.48C148.438 18.104 148.862 18.952 148.862 20.024C148.862 20.664 148.742 21.176 148.502 21.56C148.262 21.928 147.926 22.248 147.494 22.52C148.038 22.776 148.462 23.16 148.766 23.672C149.086 24.168 149.246 24.728 149.246 25.352C149.246 26.488 148.806 27.384 147.926 28.04C147.046 28.68 145.726 29 143.966 29H138.182ZM141.062 26.648H143.75C144.31 26.648 144.758 26.544 145.094 26.336C145.446 26.112 145.622 25.768 145.622 25.304C145.622 24.824 145.462 24.48 145.142 24.272C144.822 24.064 144.358 23.96 143.75 23.96H141.062V26.648ZM141.062 21.512H143.654C144.23 21.512 144.686 21.392 145.022 21.152C145.358 20.912 145.526 20.568 145.526 20.12C145.526 19.656 145.358 19.336 145.022 19.16C144.686 18.968 144.23 18.872 143.654 18.872H141.062V21.512ZM155.528 29.24C154.68 29.24 153.92 29.08 153.248 28.76C152.576 28.424 152.04 27.976 151.64 27.416C151.24 26.856 151.04 26.232 151.04 25.544C151.04 24.408 151.496 23.512 152.408 22.856C153.336 22.2 154.552 21.752 156.056 21.512L159.2 21.056V20.624C159.2 20 159.056 19.52 158.768 19.184C158.48 18.848 157.976 18.68 157.256 18.68C156.728 18.68 156.304 18.784 155.984 18.992C155.664 19.2 155.416 19.472 155.24 19.808C155.112 20.016 154.928 20.12 154.688 20.12H152.408C152.232 20.12 152.096 20.072 152 19.976C151.904 19.864 151.864 19.736 151.88 19.592C151.88 19.32 151.984 19 152.192 18.632C152.4 18.264 152.72 17.904 153.152 17.552C153.584 17.184 154.136 16.88 154.808 16.64C155.48 16.4 156.304 16.28 157.28 16.28C158.288 16.28 159.152 16.4 159.872 16.64C160.592 16.88 161.168 17.216 161.6 17.648C162.032 18.08 162.352 18.584 162.56 19.16C162.768 19.72 162.872 20.328 162.872 20.984V28.4C162.872 28.576 162.816 28.72 162.704 28.832C162.592 28.944 162.448 29 162.272 29H159.92C159.76 29 159.624 28.944 159.512 28.832C159.4 28.72 159.344 28.576 159.344 28.4V27.512C159.136 27.816 158.856 28.104 158.504 28.376C158.152 28.632 157.728 28.84 157.232 29C156.752 29.16 156.184 29.24 155.528 29.24ZM156.488 26.744C157.016 26.744 157.488 26.632 157.904 26.408C158.32 26.184 158.648 25.84 158.888 25.376C159.128 24.912 159.248 24.328 159.248 23.624V23.216L157.016 23.576C156.152 23.72 155.52 23.936 155.12 24.224C154.72 24.512 154.52 24.864 154.52 25.28C154.52 25.584 154.608 25.848 154.784 26.072C154.976 26.296 155.224 26.464 155.528 26.576C155.832 26.688 156.152 26.744 156.488 26.744ZM169.57 29C169.394 29 169.25 28.944 169.138 28.832C169.026 28.72 168.97 28.576 168.97 28.4V19.352H165.202C165.026 19.352 164.882 19.296 164.77 19.184C164.658 19.072 164.602 18.928 164.602 18.752V17.12C164.602 16.944 164.658 16.8 164.77 16.688C164.882 16.576 165.026 16.52 165.202 16.52H176.266C176.442 16.52 176.586 16.576 176.698 16.688C176.81 16.8 176.866 16.944 176.866 17.12V18.752C176.866 18.928 176.81 19.072 176.698 19.184C176.586 19.296 176.442 19.352 176.266 19.352H172.498V28.4C172.498 28.576 172.442 28.72 172.33 28.832C172.218 28.944 172.082 29 171.922 29H169.57ZM184.427 29.24C183.099 29.24 181.987 29.024 181.091 28.592C180.195 28.144 179.507 27.512 179.027 26.696C178.563 25.88 178.307 24.928 178.259 23.84C178.243 23.52 178.235 23.16 178.235 22.76C178.235 22.344 178.243 21.984 178.259 21.68C178.307 20.576 178.579 19.624 179.075 18.824C179.571 18.008 180.267 17.384 181.163 16.952C182.059 16.504 183.147 16.28 184.427 16.28C185.691 16.28 186.771 16.504 187.667 16.952C188.563 17.384 189.259 18.008 189.755 18.824C190.251 19.624 190.523 20.576 190.571 21.68C190.603 21.984 190.619 22.344 190.619 22.76C190.619 23.16 190.603 23.52 190.571 23.84C190.523 24.928 190.259 25.88 189.779 26.696C189.315 27.512 188.635 28.144 187.739 28.592C186.843 29.024 185.739 29.24 184.427 29.24ZM184.427 26.6C185.211 26.6 185.803 26.36 186.203 25.88C186.603 25.384 186.819 24.664 186.851 23.72C186.867 23.48 186.875 23.16 186.875 22.76C186.875 22.36 186.867 22.04 186.851 21.8C186.819 20.872 186.603 20.16 186.203 19.664C185.803 19.168 185.211 18.92 184.427 18.92C183.643 18.92 183.043 19.168 182.627 19.664C182.227 20.16 182.011 20.872 181.979 21.8C181.963 22.04 181.955 22.36 181.955 22.76C181.955 23.16 181.963 23.48 181.979 23.72C182.011 24.664 182.227 25.384 182.627 25.88C183.043 26.36 183.643 26.6 184.427 26.6ZM193.729 33.56C193.553 33.56 193.409 33.504 193.297 33.392C193.185 33.28 193.129 33.136 193.129 32.96V17.12C193.129 16.944 193.185 16.8 193.297 16.688C193.409 16.576 193.553 16.52 193.729 16.52H196.009C196.185 16.52 196.329 16.576 196.441 16.688C196.553 16.8 196.609 16.944 196.609 17.12V18.032C196.993 17.52 197.489 17.104 198.097 16.784C198.705 16.448 199.465 16.28 200.377 16.28C201.209 16.28 201.929 16.416 202.537 16.688C203.161 16.944 203.681 17.32 204.097 17.816C204.529 18.296 204.857 18.88 205.081 19.568C205.321 20.256 205.457 21.032 205.489 21.896C205.505 22.2 205.513 22.488 205.513 22.76C205.513 23.032 205.505 23.328 205.489 23.648C205.473 24.464 205.345 25.216 205.105 25.904C204.881 26.592 204.553 27.184 204.121 27.68C203.689 28.176 203.161 28.56 202.537 28.832C201.929 29.104 201.209 29.24 200.377 29.24C199.561 29.24 198.849 29.096 198.241 28.808C197.649 28.504 197.161 28.096 196.777 27.584V32.96C196.777 33.136 196.721 33.28 196.609 33.392C196.497 33.504 196.361 33.56 196.201 33.56H193.729ZM199.297 26.36C199.905 26.36 200.385 26.232 200.737 25.976C201.089 25.704 201.337 25.352 201.481 24.92C201.641 24.488 201.737 24.016 201.769 23.504C201.801 23.008 201.801 22.512 201.769 22.016C201.737 21.504 201.641 21.032 201.481 20.6C201.337 20.168 201.089 19.824 200.737 19.568C200.385 19.296 199.905 19.16 199.297 19.16C198.705 19.16 198.225 19.296 197.857 19.568C197.489 19.84 197.225 20.184 197.065 20.6C196.905 21.016 196.809 21.464 196.777 21.944C196.761 22.232 196.753 22.528 196.753 22.832C196.753 23.136 196.761 23.44 196.777 23.744C196.793 24.192 196.889 24.616 197.065 25.016C197.257 25.4 197.529 25.72 197.881 25.976C198.249 26.232 198.721 26.36 199.297 26.36ZM208.635 29C208.475 29 208.339 28.944 208.227 28.832C208.115 28.72 208.059 28.576 208.059 28.4V17.12C208.059 16.944 208.115 16.8 208.227 16.688C208.339 16.576 208.475 16.52 208.635 16.52H211.059C211.219 16.52 211.355 16.576 211.467 16.688C211.579 16.8 211.635 16.944 211.635 17.12V20.408H213.915C215.531 20.408 216.763 20.8 217.611 21.584C218.459 22.352 218.883 23.408 218.883 24.752C218.883 26.16 218.435 27.224 217.539 27.944C216.643 28.648 215.379 29 213.747 29H208.635ZM211.587 26.48H213.603C214.307 26.48 214.819 26.352 215.139 26.096C215.475 25.824 215.643 25.376 215.643 24.752C215.643 24.144 215.483 23.688 215.163 23.384C214.843 23.08 214.323 22.928 213.603 22.928H211.587V26.48ZM221.019 29C220.843 29 220.699 28.944 220.587 28.832C220.475 28.72 220.419 28.576 220.419 28.4V17.12C220.419 16.944 220.475 16.8 220.587 16.688C220.699 16.576 220.843 16.52 221.019 16.52H223.419C223.579 16.52 223.715 16.576 223.827 16.688C223.939 16.8 223.995 16.944 223.995 17.12V28.4C223.995 28.576 223.939 28.72 223.827 28.832C223.715 28.944 223.579 29 223.419 29H221.019Z" fill="#4286F7"/>
<path d="M74.54 50C74.4373 50 74.358 49.972 74.302 49.916C74.246 49.8507 74.218 49.7713 74.218 49.678V40.536C74.218 40.4333 74.246 40.354 74.302 40.298C74.358 40.2327 74.4373 40.2 74.54 40.2H75.254C75.3567 40.2 75.436 40.2327 75.492 40.298C75.5573 40.354 75.59 40.4333 75.59 40.536V44.4H77.172L79.664 40.424C79.7107 40.3493 79.7713 40.2933 79.846 40.256C79.9207 40.2187 80.0187 40.2 80.14 40.2H80.896C80.9987 40.2 81.0733 40.228 81.12 40.284C81.1667 40.34 81.19 40.4053 81.19 40.48C81.19 40.536 81.1667 40.5967 81.12 40.662L78.432 44.946L81.386 49.51C81.414 49.5473 81.428 49.5987 81.428 49.664C81.428 49.7573 81.3953 49.8367 81.33 49.902C81.274 49.9673 81.1993 50 81.106 50H80.308C80.2053 50 80.126 49.9813 80.07 49.944C80.0233 49.8973 79.9813 49.846 79.944 49.79L77.228 45.66H75.59V49.678C75.59 49.7713 75.5573 49.8507 75.492 49.916C75.436 49.972 75.3567 50 75.254 50H74.54ZM83.3271 52.66C83.2337 52.66 83.1544 52.6273 83.0891 52.562C83.0331 52.506 83.0051 52.4313 83.0051 52.338V43.042C83.0051 42.9487 83.0331 42.874 83.0891 42.818C83.1544 42.7527 83.2337 42.72 83.3271 42.72H83.9711C84.0644 42.72 84.1391 42.7527 84.1951 42.818C84.2604 42.874 84.2931 42.9487 84.2931 43.042V43.658C84.5171 43.35 84.8157 43.0933 85.1891 42.888C85.5624 42.6827 86.0291 42.58 86.5891 42.58C87.1117 42.58 87.5551 42.6687 87.9191 42.846C88.2924 43.0233 88.5957 43.266 88.8291 43.574C89.0717 43.882 89.2537 44.232 89.3751 44.624C89.4964 45.016 89.5617 45.436 89.5711 45.884C89.5804 46.0333 89.5851 46.192 89.5851 46.36C89.5851 46.528 89.5804 46.6867 89.5711 46.836C89.5617 47.2747 89.4964 47.6947 89.3751 48.096C89.2537 48.488 89.0717 48.838 88.8291 49.146C88.5957 49.4447 88.2924 49.6873 87.9191 49.874C87.5551 50.0513 87.1117 50.14 86.5891 50.14C86.0477 50.14 85.5904 50.042 85.2171 49.846C84.8531 49.6407 84.5544 49.3887 84.3211 49.09V52.338C84.3211 52.4313 84.2931 52.506 84.2371 52.562C84.1811 52.6273 84.1017 52.66 83.9991 52.66H83.3271ZM86.2951 49.006C86.7804 49.006 87.1584 48.9033 87.4291 48.698C87.7091 48.4833 87.9097 48.208 88.0311 47.872C88.1524 47.5267 88.2224 47.158 88.2411 46.766C88.2504 46.4953 88.2504 46.2247 88.2411 45.954C88.2224 45.562 88.1524 45.198 88.0311 44.862C87.9097 44.5167 87.7091 44.2413 87.4291 44.036C87.1584 43.8213 86.7804 43.714 86.2951 43.714C85.8377 43.714 85.4644 43.8213 85.1751 44.036C84.8951 44.2507 84.6851 44.526 84.5451 44.862C84.4144 45.1887 84.3397 45.5247 84.3211 45.87C84.3117 46.0193 84.3071 46.1967 84.3071 46.402C84.3071 46.6073 84.3117 46.7893 84.3211 46.948C84.3304 47.2747 84.4051 47.5967 84.5451 47.914C84.6944 48.2313 84.9137 48.4927 85.2031 48.698C85.4924 48.9033 85.8564 49.006 86.2951 49.006ZM93.3609 50.14C92.8943 50.14 92.4696 50.0467 92.0869 49.86C91.7043 49.6733 91.3963 49.4213 91.1629 49.104C90.9296 48.7867 90.8129 48.4273 90.8129 48.026C90.8129 47.382 91.0743 46.8687 91.5969 46.486C92.1196 46.1033 92.8009 45.8513 93.6409 45.73L95.7269 45.436V45.03C95.7269 44.582 95.5963 44.232 95.3349 43.98C95.0829 43.728 94.6676 43.602 94.0889 43.602C93.6689 43.602 93.3283 43.686 93.0669 43.854C92.8149 44.022 92.6376 44.2367 92.5349 44.498C92.4789 44.638 92.3809 44.708 92.2409 44.708H91.6109C91.5083 44.708 91.4289 44.68 91.3729 44.624C91.3263 44.5587 91.3029 44.484 91.3029 44.4C91.3029 44.26 91.3543 44.0873 91.4569 43.882C91.5689 43.6767 91.7369 43.476 91.9609 43.28C92.1849 43.084 92.4696 42.9207 92.8149 42.79C93.1696 42.65 93.5989 42.58 94.1029 42.58C94.6629 42.58 95.1343 42.6547 95.5169 42.804C95.8996 42.944 96.1983 43.1353 96.4129 43.378C96.6369 43.6207 96.7956 43.896 96.8889 44.204C96.9916 44.512 97.0429 44.8247 97.0429 45.142V49.678C97.0429 49.7713 97.0103 49.8507 96.9449 49.916C96.8889 49.972 96.8143 50 96.7209 50H96.0769C95.9743 50 95.8949 49.972 95.8389 49.916C95.7829 49.8507 95.7549 49.7713 95.7549 49.678V49.076C95.6336 49.244 95.4703 49.412 95.2649 49.58C95.0596 49.7387 94.8029 49.874 94.4949 49.986C94.1869 50.0887 93.8089 50.14 93.3609 50.14ZM93.6549 49.09C94.0376 49.09 94.3876 49.0107 94.7049 48.852C95.0223 48.684 95.2696 48.4273 95.4469 48.082C95.6336 47.7367 95.7269 47.3027 95.7269 46.78V46.388L94.1029 46.626C93.4403 46.7193 92.9409 46.878 92.6049 47.102C92.2689 47.3167 92.1009 47.592 92.1009 47.928C92.1009 48.1893 92.1756 48.4087 92.3249 48.586C92.4836 48.754 92.6796 48.88 92.9129 48.964C93.1556 49.048 93.4029 49.09 93.6549 49.09ZM101.996 50.14C101.333 50.14 100.759 50.014 100.274 49.762C99.7975 49.5007 99.4289 49.132 99.1675 48.656C98.9062 48.1707 98.7662 47.592 98.7475 46.92C98.7382 46.78 98.7335 46.5933 98.7335 46.36C98.7335 46.1267 98.7382 45.94 98.7475 45.8C98.7662 45.128 98.9062 44.554 99.1675 44.078C99.4289 43.5927 99.7975 43.224 100.274 42.972C100.759 42.7107 101.333 42.58 101.996 42.58C102.537 42.58 102.999 42.6547 103.382 42.804C103.774 42.9533 104.096 43.1447 104.348 43.378C104.6 43.6113 104.786 43.8633 104.908 44.134C105.038 44.4047 105.108 44.6613 105.118 44.904C105.127 44.9973 105.099 45.072 105.034 45.128C104.968 45.184 104.889 45.212 104.796 45.212H104.124C104.03 45.212 103.96 45.1933 103.914 45.156C103.867 45.1093 103.82 45.0347 103.774 44.932C103.606 44.4747 103.377 44.1527 103.088 43.966C102.798 43.7793 102.439 43.686 102.01 43.686C101.45 43.686 100.992 43.8587 100.638 44.204C100.292 44.5493 100.106 45.1047 100.078 45.87C100.068 46.206 100.068 46.5327 100.078 46.85C100.106 47.6247 100.292 48.1847 100.638 48.53C100.992 48.866 101.45 49.034 102.01 49.034C102.439 49.034 102.798 48.9407 103.088 48.754C103.377 48.5673 103.606 48.2453 103.774 47.788C103.82 47.6853 103.867 47.6153 103.914 47.578C103.96 47.5313 104.03 47.508 104.124 47.508H104.796C104.889 47.508 104.968 47.536 105.034 47.592C105.099 47.648 105.127 47.7227 105.118 47.816C105.108 48.012 105.066 48.2127 104.992 48.418C104.917 48.6233 104.796 48.8333 104.628 49.048C104.469 49.2533 104.268 49.44 104.026 49.608C103.783 49.7667 103.489 49.8973 103.144 50C102.808 50.0933 102.425 50.14 101.996 50.14ZM107.102 50C107.009 50 106.929 49.972 106.864 49.916C106.808 49.8507 106.78 49.7713 106.78 49.678V43.042C106.78 42.9487 106.808 42.874 106.864 42.818C106.929 42.7527 107.009 42.72 107.102 42.72H107.774C107.867 42.72 107.942 42.7527 107.998 42.818C108.054 42.874 108.082 42.9487 108.082 43.042V45.73H111.904V43.042C111.904 42.9487 111.932 42.874 111.988 42.818C112.053 42.7527 112.133 42.72 112.226 42.72H112.884C112.977 42.72 113.052 42.7527 113.108 42.818C113.173 42.874 113.206 42.9487 113.206 43.042V49.678C113.206 49.7713 113.173 49.8507 113.108 49.916C113.052 49.972 112.977 50 112.884 50H112.226C112.133 50 112.053 49.972 111.988 49.916C111.932 49.8507 111.904 49.7713 111.904 49.678V46.85H108.082V49.678C108.082 49.7713 108.054 49.8507 107.998 49.916C107.942 49.972 107.867 50 107.774 50H107.102ZM118.293 50.14C117.584 50.14 116.991 50.0047 116.515 49.734C116.039 49.4633 115.675 49.09 115.423 48.614C115.171 48.1287 115.031 47.578 115.003 46.962C114.994 46.8033 114.989 46.6027 114.989 46.36C114.989 46.108 114.994 45.9073 115.003 45.758C115.031 45.1327 115.171 44.582 115.423 44.106C115.685 43.63 116.053 43.2567 116.529 42.986C117.005 42.7153 117.593 42.58 118.293 42.58C118.993 42.58 119.581 42.7153 120.057 42.986C120.533 43.2567 120.897 43.63 121.149 44.106C121.411 44.582 121.555 45.1327 121.583 45.758C121.593 45.9073 121.597 46.108 121.597 46.36C121.597 46.6027 121.593 46.8033 121.583 46.962C121.555 47.578 121.415 48.1287 121.163 48.614C120.911 49.09 120.547 49.4633 120.071 49.734C119.595 50.0047 119.003 50.14 118.293 50.14ZM118.293 49.062C118.872 49.062 119.334 48.88 119.679 48.516C120.025 48.1427 120.211 47.6013 120.239 46.892C120.249 46.752 120.253 46.5747 120.253 46.36C120.253 46.1453 120.249 45.968 120.239 45.828C120.211 45.1187 120.025 44.582 119.679 44.218C119.334 43.8447 118.872 43.658 118.293 43.658C117.715 43.658 117.248 43.8447 116.893 44.218C116.548 44.582 116.366 45.1187 116.347 45.828C116.338 45.968 116.333 46.1453 116.333 46.36C116.333 46.5747 116.338 46.752 116.347 46.892C116.366 47.6013 116.548 48.1427 116.893 48.516C117.248 48.88 117.715 49.062 118.293 49.062ZM122.93 51.54C122.837 51.54 122.758 51.5073 122.692 51.442C122.636 51.386 122.608 51.3113 122.608 51.218V49.202C122.608 49.1087 122.636 49.034 122.692 48.978C122.758 48.9127 122.837 48.88 122.93 48.88H123C123.252 48.8707 123.467 48.7307 123.644 48.46C123.822 48.18 123.957 47.746 124.05 47.158C124.144 46.5607 124.19 45.786 124.19 44.834V43.042C124.19 42.9487 124.218 42.874 124.274 42.818C124.34 42.7527 124.419 42.72 124.512 42.72H128.978C129.072 42.72 129.146 42.7527 129.202 42.818C129.268 42.874 129.3 42.9487 129.3 43.042V48.852H129.958C130.061 48.852 130.14 48.8847 130.196 48.95C130.252 49.006 130.28 49.0807 130.28 49.174V51.218C130.28 51.3113 130.252 51.386 130.196 51.442C130.14 51.5073 130.061 51.54 129.958 51.54H129.3C129.207 51.54 129.128 51.5073 129.062 51.442C129.006 51.386 128.978 51.3113 128.978 51.218V50H123.91V51.218C123.91 51.3113 123.878 51.386 123.812 51.442C123.756 51.5073 123.682 51.54 123.588 51.54H122.93ZM124.666 48.88L127.998 48.852V43.84H125.464V44.988C125.464 45.9773 125.394 46.7893 125.254 47.424C125.114 48.0493 124.918 48.5347 124.666 48.88ZM133.775 50.14C133.308 50.14 132.884 50.0467 132.501 49.86C132.118 49.6733 131.81 49.4213 131.577 49.104C131.344 48.7867 131.227 48.4273 131.227 48.026C131.227 47.382 131.488 46.8687 132.011 46.486C132.534 46.1033 133.215 45.8513 134.055 45.73L136.141 45.436V45.03C136.141 44.582 136.01 44.232 135.749 43.98C135.497 43.728 135.082 43.602 134.503 43.602C134.083 43.602 133.742 43.686 133.481 43.854C133.229 44.022 133.052 44.2367 132.949 44.498C132.893 44.638 132.795 44.708 132.655 44.708H132.025C131.922 44.708 131.843 44.68 131.787 44.624C131.74 44.5587 131.717 44.484 131.717 44.4C131.717 44.26 131.768 44.0873 131.871 43.882C131.983 43.6767 132.151 43.476 132.375 43.28C132.599 43.084 132.884 42.9207 133.229 42.79C133.584 42.65 134.013 42.58 134.517 42.58C135.077 42.58 135.548 42.6547 135.931 42.804C136.314 42.944 136.612 43.1353 136.827 43.378C137.051 43.6207 137.21 43.896 137.303 44.204C137.406 44.512 137.457 44.8247 137.457 45.142V49.678C137.457 49.7713 137.424 49.8507 137.359 49.916C137.303 49.972 137.228 50 137.135 50H136.491C136.388 50 136.309 49.972 136.253 49.916C136.197 49.8507 136.169 49.7713 136.169 49.678V49.076C136.048 49.244 135.884 49.412 135.679 49.58C135.474 49.7387 135.217 49.874 134.909 49.986C134.601 50.0887 134.223 50.14 133.775 50.14ZM134.069 49.09C134.452 49.09 134.802 49.0107 135.119 48.852C135.436 48.684 135.684 48.4273 135.861 48.082C136.048 47.7367 136.141 47.3027 136.141 46.78V46.388L134.517 46.626C133.854 46.7193 133.355 46.878 133.019 47.102C132.683 47.3167 132.515 47.592 132.515 47.928C132.515 48.1893 132.59 48.4087 132.739 48.586C132.898 48.754 133.094 48.88 133.327 48.964C133.57 49.048 133.817 49.09 134.069 49.09ZM139.806 52.66C139.712 52.66 139.633 52.6273 139.568 52.562C139.512 52.506 139.484 52.4313 139.484 52.338V43.042C139.484 42.9487 139.512 42.874 139.568 42.818C139.633 42.7527 139.712 42.72 139.806 42.72H140.45C140.543 42.72 140.618 42.7527 140.674 42.818C140.739 42.874 140.772 42.9487 140.772 43.042V43.658C140.996 43.35 141.294 43.0933 141.668 42.888C142.041 42.6827 142.508 42.58 143.068 42.58C143.59 42.58 144.034 42.6687 144.398 42.846C144.771 43.0233 145.074 43.266 145.308 43.574C145.55 43.882 145.732 44.232 145.854 44.624C145.975 45.016 146.04 45.436 146.05 45.884C146.059 46.0333 146.064 46.192 146.064 46.36C146.064 46.528 146.059 46.6867 146.05 46.836C146.04 47.2747 145.975 47.6947 145.854 48.096C145.732 48.488 145.55 48.838 145.308 49.146C145.074 49.4447 144.771 49.6873 144.398 49.874C144.034 50.0513 143.59 50.14 143.068 50.14C142.526 50.14 142.069 50.042 141.696 49.846C141.332 49.6407 141.033 49.3887 140.8 49.09V52.338C140.8 52.4313 140.772 52.506 140.716 52.562C140.66 52.6273 140.58 52.66 140.478 52.66H139.806ZM142.774 49.006C143.259 49.006 143.637 48.9033 143.908 48.698C144.188 48.4833 144.388 48.208 144.51 47.872C144.631 47.5267 144.701 47.158 144.72 46.766C144.729 46.4953 144.729 46.2247 144.72 45.954C144.701 45.562 144.631 45.198 144.51 44.862C144.388 44.5167 144.188 44.2413 143.908 44.036C143.637 43.8213 143.259 43.714 142.774 43.714C142.316 43.714 141.943 43.8213 141.654 44.036C141.374 44.2507 141.164 44.526 141.024 44.862C140.893 45.1887 140.818 45.5247 140.8 45.87C140.79 46.0193 140.786 46.1967 140.786 46.402C140.786 46.6073 140.79 46.7893 140.8 46.948C140.809 47.2747 140.884 47.5967 141.024 47.914C141.173 48.2313 141.392 48.4927 141.682 48.698C141.971 48.9033 142.335 49.006 142.774 49.006Z" fill="black"/>
</svg>
