<svg width="25" height="25" viewBox="0 0 25 25" fill="none" xmlns="http://www.w3.org/2000/svg">
<path d="M24.8134 11.6469C23.8988 9.64687 20.3124 3.125 12.4999 3.125C4.68737 3.125 1.10091 9.64687 0.186324 11.6469C0.0635516 11.9149 0 12.2062 0 12.501C0 12.7958 0.0635516 13.0872 0.186324 13.3552C1.10091 15.3531 4.68737 21.875 12.4999 21.875C20.3124 21.875 23.8988 15.3531 24.8134 13.3531C24.9359 13.0854 24.9994 12.7944 24.9994 12.5C24.9994 12.2056 24.9359 11.9146 24.8134 11.6469ZM12.4999 19.7917C5.93007 19.7917 2.86445 14.2021 2.0832 12.5115C2.86445 10.7979 5.93007 5.20833 12.4999 5.20833C19.054 5.20833 22.1207 10.774 22.9165 12.5C22.1207 14.226 19.054 19.7917 12.4999 19.7917Z" fill="black" fill-opacity="0.21"/>
<path d="M12.4994 7.29163C11.4692 7.29163 10.4623 7.59709 9.60576 8.16939C8.74925 8.74169 8.08169 9.55512 7.68748 10.5068C7.29327 11.4585 7.19013 12.5057 7.39109 13.5161C7.59206 14.5264 8.08811 15.4544 8.8165 16.1828C9.5449 16.9112 10.4729 17.4073 11.4833 17.6082C12.4936 17.8092 13.5408 17.706 14.4925 17.3118C15.4442 16.9176 16.2576 16.2501 16.8299 15.3936C17.4022 14.537 17.7077 13.5301 17.7077 12.5C17.706 11.1191 17.1568 9.79533 16.1804 8.81894C15.204 7.84254 13.8802 7.29328 12.4994 7.29163ZM12.4994 15.625C11.8813 15.625 11.2771 15.4417 10.7632 15.0983C10.2493 14.7549 9.84875 14.2669 9.61223 13.6958C9.3757 13.1248 9.31382 12.4965 9.4344 11.8903C9.55498 11.2841 9.8526 10.7273 10.2896 10.2903C10.7267 9.85321 11.2835 9.55558 11.8897 9.435C12.4959 9.31443 13.1242 9.37631 13.6952 9.61284C14.2663 9.84936 14.7543 10.2499 15.0977 10.7638C15.4411 11.2777 15.6244 11.8819 15.6244 12.5C15.6244 13.3288 15.2951 14.1236 14.7091 14.7097C14.123 15.2957 13.3282 15.625 12.4994 15.625Z" fill="black" fill-opacity="0.21"/>
</svg>
